<svg viewBox="-0.5 -0.5 16 16" fill="none" xmlns="http://www.w3.org/2000/svg" id="Eye--Streamline-Solar-Broken.svg" height="16" width="16"><desc>Eye Streamline Icon: https://streamlinehq.com</desc><path d="M5.625 2.7872625C6.19470625 2.6060499999999998 6.818999999999999 2.5 7.5 2.5c2.6136874999999997 0 4.3925 1.5622249999999998 5.453187499999999 2.9402062499999997C13.484375 6.130331249999999 13.75 6.475375 13.75 7.5s-0.265625 1.3696875 -0.7968124999999999 2.0598125C11.892499999999998 10.93775 10.1136875 12.5 7.5 12.5c-2.61368125 0 -4.392525 -1.5622500000000001 -5.4531937500000005 -2.9401875C1.5156 8.8696875 1.25 8.524625 1.25 7.5s0.2656 -1.3696687499999998 0.79680625 -2.05979375C2.347575 5.049462500000001 2.7060812499999995 4.64390625 3.125 4.26335625" stroke="#000000" stroke-linecap="round" stroke-width="1"></path><path d="M9.375 7.5c0 1.0355625 -0.8394375 1.875 -1.875 1.875s-1.875 -0.8394375 -1.875 -1.875 0.8394375 -1.875 1.875 -1.875 1.875 0.8394375 1.875 1.875Z" stroke="#000000" stroke-width="1"></path></svg>