<svg xmlns="http://www.w3.org/2000/svg" id="SvgjsSvg97554" width="4096" height="1662.7555631414402" version="1.1" xmlns:xlink="http://www.w3.org/1999/xlink" xmlns:svgjs="http://svgjs.com/svgjs"><defs id="SvgjsDefs97555"></defs><rect id="SvgjsRect97556" width="4096" height="1662.7555631414402" fill="#000000"></rect><g id="SvgjsG97557" transform="translate(328, 328.00000000000006) scale(34.4)" opacity="1"><defs id="SvgjsDefs29800"></defs><g id="SvgjsG29801" transform="scale(0.2051875315877089)" opacity="1"><g id="SvgjsG29802" class="ACLm3iPb9" transform="translate(-6.97453702673151, -4.870486750510837) scale(1.5585557601634679)" light-content="false" non-strokable="false" fill="#ffffff"><path d="M23.963 85.631h-6.837V65.844h6.837v19.787zm-3.837-3h.837V68.844h-.837v13.787z"></path><path d="M30.029 79.264H10.5v-6.838h19.529v6.838zm-16.529-3h13.529v-.838H13.5v.838z"></path><path d="M72.85 6.151l-9.817-3.026-1.987 6.447 9.817 3.026 1.987-6.447zm-3.97 2.696l-4.085-1.259.22-.713L69.1 8.134l-.22.713zm-16.02.725l-1.986-6.447-9.817 3.026 1.986 6.447 9.817-3.026zm-3.969-2.697l.22.713-4.084 1.259-.22-.713 4.084-1.259zM20.543 59.217c-8.859.002-16.068 7.211-16.068 16.07 0 8.86 7.209 16.068 16.069 16.068s16.069-7.208 16.069-16.068c0-8.861-7.209-16.07-16.07-16.07zm.001 29.138c-7.206 0-13.069-5.862-13.069-13.068 0-7.205 5.863-13.068 13.069-13.07 7.206 0 13.069 5.863 13.07 13.07-.001 7.206-5.864 13.068-13.07 13.068z"></path><path d="M82.554 28.79l.149-.503c2.759-9.325-3.364-17.46-8.97-19.187l-.883 2.867c4.166 1.284 8.821 7.559 7.161 14.693-6.394-4.916-14.389-7.849-23.059-7.849s-16.665 2.932-23.058 7.848c-1.661-7.134 2.995-13.409 7.162-14.692L40.174 9.1c-5.606 1.727-11.73 9.862-8.97 19.187.051.171.1.476.149.643C23.793 35.864 19.044 46 19.044 57h3c0-10 3.927-18.517 10.265-24.84 1.588 5.374 2.59 8.749 6.132 21.062 1.866 6.488 6.267 11.39 11.759 13.643-4.73 2.453-7.951 7.369-7.951 13.055C42.249 88.041 49 94.639 57 94.64v-.005c21 0 37.887-17.011 37.887-37.914 0-11.043-4.773-20.996-12.333-27.931zm-41.23 23.533c-3.84-13.35-4.697-16.284-6.548-22.542 6.035-4.977 13.763-7.97 22.178-7.97 8.415 0 16.144 2.993 22.179 7.97-1.859 6.283-2.692 9.216-6.526 22.542C70.221 60.615 65 65.182 57 65.182v-.006l-.084.003c-7-.031-13.42-5.306-15.592-12.856zm15.63 39.308c-6.467 0-11.729-5.262-11.729-11.729 0-6.445 5.229-11.689 11.667-11.724.021 0 .041.003.062.003 9.018 0 15.765-5.478 18.512-15.028 3.537-12.296 4.538-15.737 6.133-21.133 6.338 6.324 10.266 15.062 10.266 24.701-.002 19.25-15.662 34.91-34.911 34.91z"></path></g><g id="SvgjsG29803" class="RNL7gwD_jb" transform="translate(-0.8707561180899988, -1.9064461405122586) scale(2.0322755773453247) rotate(90, 35.978927519719754, 36.02959271490092)" light-content="false" non-strokable="false" fill="#ff7f3e"><path d="M69.4.7L34 25.5c-.2.2-.4.4-.4.7l-2.2 11.5c0 .2-.1.4-.3.5C29.5 39.9 19 50.7 14 54.9c-.3.2-.6.2-.9.1-2-.9-4.4-1-6.7-.1C2.9 56.2.7 59.8.9 63.5c.4 5.9 6.4 9.7 12 7.4 2.8-1.1 4.8-3.8 5.3-6.8.2-1.5 0-2.9-.4-4.2-.1-.3-.1-.7.2-.9l17.1-17.6c.1-.2.3-.3.6-.3l11.5-2.3c.3-.1.5-.2.7-.5l23-36.2c.6-1-.5-2.1-1.5-1.4zM10.5 67.2c-2.4.5-4.8-1-5.3-3.5-.5-2.4 1.1-4.8 3.5-5.3s4.8 1 5.3 3.5-1.1 4.8-3.5 5.3z"></path></g><g id="SvgjsG29804" class="text" transform="translate(320.656679158628, 74.97874242889326) scale(1)" light-content="false" fill="#ffffff"><path d="M-146.04 -17.98L-146.04 -17.98L-156.17 -37.93C-156.35 -38.28 -156.53 -38.54 -156.72 -38.73C-156.91 -38.92 -157.12 -39.06 -157.36 -39.15C-157.59 -39.24 -157.86 -39.29 -158.15 -39.31C-158.45 -39.33 -158.8 -39.34 -159.19 -39.34L-166.16 -39.34L-166.16 0L-158.11 0L-158.11 -22.63C-158.11 -23.15 -158.13 -23.72 -158.17 -24.34C-158.2 -24.96 -158.26 -25.59 -158.33 -26.22L-147.85 -5.97C-147.53 -5.34 -147.09 -4.86 -146.54 -4.54C-145.99 -4.21 -145.37 -4.05 -144.67 -4.05L-143.42 -4.05C-142.72 -4.05 -142.1 -4.21 -141.55 -4.54C-141 -4.86 -140.56 -5.34 -140.24 -5.97L-129.82 -26.19C-129.92 -24.91 -129.98 -23.72 -129.98 -22.63L-129.98 0L-121.93 0L-121.93 -39.34L-128.9 -39.34C-129.29 -39.34 -129.64 -39.33 -129.94 -39.31C-130.23 -39.29 -130.5 -39.24 -130.73 -39.15C-130.97 -39.06 -131.18 -38.92 -131.37 -38.73C-131.56 -38.54 -131.74 -38.28 -131.92 -37.93L-142.02 -18.06C-142.38 -17.36 -142.73 -16.64 -143.07 -15.89C-143.42 -15.14 -143.74 -14.37 -144.04 -13.58C-144.35 -14.36 -144.67 -15.11 -145 -15.85C-145.34 -16.59 -145.68 -17.3 -146.04 -17.98Z M-103.46 -28.43C-105.61 -28.43 -107.53 -28.06 -109.23 -27.32C-110.93 -26.59 -112.38 -25.59 -113.58 -24.33C-114.77 -23.07 -115.69 -21.6 -116.33 -19.93C-116.97 -18.25 -117.29 -16.48 -117.29 -14.61C-117.29 -12.12 -116.91 -9.95 -116.17 -8.07C-115.42 -6.2 -114.4 -4.64 -113.12 -3.37C-111.83 -2.12 -110.33 -1.17 -108.61 -0.53C-106.89 0.11 -105.05 0.43 -103.09 0.43C-102.13 0.43 -101.13 0.36 -100.08 0.23C-99.02 0.09 -97.97 -0.15 -96.92 -0.5C-95.86 -0.85 -94.84 -1.34 -93.84 -1.96C-92.84 -2.58 -91.91 -3.38 -91.04 -4.37L-93.47 -7.37C-93.82 -7.86 -94.32 -8.1 -94.99 -8.1C-95.49 -8.1 -95.97 -7.98 -96.43 -7.75C-96.89 -7.52 -97.39 -7.25 -97.94 -6.97C-98.49 -6.68 -99.12 -6.42 -99.82 -6.18C-100.52 -5.95 -101.36 -5.83 -102.33 -5.83C-104.15 -5.83 -105.63 -6.36 -106.79 -7.41C-107.94 -8.46 -108.65 -10.16 -108.92 -12.5L-92.77 -12.5C-92.39 -12.5 -92.08 -12.55 -91.84 -12.64C-91.6 -12.73 -91.4 -12.89 -91.26 -13.12C-91.12 -13.36 -91.02 -13.67 -90.96 -14.07C-90.91 -14.46 -90.88 -14.98 -90.88 -15.61C-90.88 -17.62 -91.19 -19.43 -91.81 -21.02C-92.43 -22.61 -93.3 -23.96 -94.41 -25.06C-95.51 -26.15 -96.84 -26.99 -98.37 -27.57C-99.91 -28.14 -101.61 -28.43 -103.46 -28.43ZM-103.3 -22.65C-102.4 -22.65 -101.64 -22.5 -101.01 -22.19C-100.38 -21.89 -99.87 -21.49 -99.48 -20.99C-99.09 -20.5 -98.82 -19.93 -98.64 -19.3C-98.47 -18.68 -98.39 -18.03 -98.39 -17.36L-108.84 -17.36C-108.55 -19.07 -107.96 -20.38 -107.05 -21.29C-106.15 -22.2 -104.9 -22.65 -103.3 -22.65Z M-66.42 0L-61.24 0L-61.24 -40.42L-69.61 -40.42L-69.61 -26.24C-70.42 -26.93 -71.32 -27.48 -72.32 -27.9C-73.32 -28.33 -74.54 -28.54 -75.98 -28.54C-77.76 -28.54 -79.39 -28.17 -80.87 -27.43C-82.34 -26.69 -83.61 -25.67 -84.66 -24.37C-85.71 -23.06 -86.53 -21.51 -87.1 -19.72C-87.68 -17.93 -87.97 -15.99 -87.97 -13.9C-87.97 -11.64 -87.71 -9.62 -87.2 -7.84C-86.68 -6.07 -85.98 -4.57 -85.08 -3.35C-84.18 -2.12 -83.11 -1.19 -81.86 -0.54C-80.62 0.11 -79.27 0.43 -77.81 0.43C-76.86 0.43 -75.97 0.34 -75.15 0.15C-74.34 -0.04 -73.57 -0.31 -72.86 -0.66C-72.15 -1.01 -71.49 -1.43 -70.87 -1.92C-70.26 -2.4 -69.68 -2.94 -69.12 -3.54L-68.47 -1.4C-68.33 -0.94 -68.08 -0.59 -67.73 -0.35C-67.38 -0.12 -66.94 0 -66.42 0ZM-74.9 -5.99C-75.56 -5.99 -76.17 -6.13 -76.71 -6.4C-77.25 -6.67 -77.71 -7.11 -78.1 -7.74C-78.48 -8.36 -78.79 -9.17 -79 -10.18C-79.22 -11.19 -79.33 -12.43 -79.33 -13.9C-79.33 -15.44 -79.19 -16.74 -78.92 -17.82C-78.65 -18.9 -78.28 -19.78 -77.8 -20.45C-77.32 -21.13 -76.76 -21.62 -76.11 -21.92C-75.46 -22.23 -74.75 -22.38 -73.98 -22.38C-73.17 -22.38 -72.4 -22.24 -71.67 -21.96C-70.94 -21.69 -70.25 -21.19 -69.61 -20.49L-69.61 -8.61C-69.97 -8.18 -70.33 -7.8 -70.7 -7.48C-71.07 -7.15 -71.46 -6.88 -71.87 -6.67C-72.29 -6.45 -72.74 -6.29 -73.24 -6.17C-73.73 -6.05 -74.29 -5.99 -74.9 -5.99Z M-45.63 -14.55L-43.31 -14.55C-42.61 -14.55 -42.06 -14.44 -41.67 -14.23C-41.29 -14.01 -40.95 -13.65 -40.66 -13.15L-34.13 -1.73C-33.46 -0.58 -32.36 0 -30.83 0L-22.57 0L-30.94 -13.69C-31.34 -14.34 -31.8 -14.89 -32.33 -15.34C-32.86 -15.79 -33.43 -16.16 -34.05 -16.47C-32.77 -16.96 -31.64 -17.58 -30.66 -18.33C-29.68 -19.09 -28.85 -19.95 -28.17 -20.91C-27.5 -21.87 -26.99 -22.92 -26.65 -24.06C-26.31 -25.19 -26.14 -26.4 -26.14 -27.67C-26.14 -29.35 -26.42 -30.9 -27 -32.32C-27.58 -33.74 -28.5 -34.97 -29.77 -36.02C-31.04 -37.06 -32.67 -37.88 -34.68 -38.46C-36.69 -39.05 -39.11 -39.34 -41.96 -39.34L-54.76 -39.34L-54.76 0L-45.63 0ZM-45.63 -20.84L-45.63 -32.51L-41.96 -32.51C-39.6 -32.51 -37.86 -32.02 -36.73 -31.05C-35.61 -30.08 -35.05 -28.73 -35.05 -27C-35.05 -26.14 -35.17 -25.33 -35.42 -24.58C-35.68 -23.84 -36.08 -23.18 -36.64 -22.63C-37.2 -22.07 -37.91 -21.63 -38.79 -21.32C-39.66 -21 -40.72 -20.84 -41.96 -20.84Z M-6.86 -28.43C-9 -28.43 -10.92 -28.06 -12.62 -27.32C-14.32 -26.59 -15.77 -25.59 -16.97 -24.33C-18.17 -23.07 -19.08 -21.6 -19.72 -19.93C-20.36 -18.25 -20.68 -16.48 -20.68 -14.61C-20.68 -12.12 -20.31 -9.95 -19.56 -8.07C-18.81 -6.2 -17.8 -4.64 -16.51 -3.37C-15.22 -2.12 -13.72 -1.17 -12 -0.53C-10.28 0.11 -8.44 0.43 -6.48 0.43C-5.53 0.43 -4.52 0.36 -3.47 0.23C-2.42 0.09 -1.36 -0.15 -0.31 -0.5C0.74 -0.85 1.77 -1.34 2.77 -1.96C3.77 -2.58 4.7 -3.38 5.56 -4.37L3.13 -7.37C2.79 -7.86 2.29 -8.1 1.62 -8.1C1.12 -8.1 0.63 -7.98 0.18 -7.75C-0.28 -7.52 -0.79 -7.25 -1.34 -6.97C-1.89 -6.68 -2.51 -6.42 -3.21 -6.18C-3.91 -5.95 -4.75 -5.83 -5.72 -5.83C-7.54 -5.83 -9.03 -6.36 -10.18 -7.41C-11.33 -8.46 -12.04 -10.16 -12.31 -12.5L3.83 -12.5C4.21 -12.5 4.52 -12.55 4.77 -12.64C5.01 -12.73 5.2 -12.89 5.35 -13.12C5.49 -13.36 5.59 -13.67 5.64 -14.07C5.7 -14.46 5.72 -14.98 5.72 -15.61C5.72 -17.62 5.41 -19.43 4.79 -21.02C4.17 -22.61 3.31 -23.96 2.2 -25.06C1.09 -26.15 -0.23 -26.99 -1.77 -27.57C-3.31 -28.14 -5 -28.43 -6.86 -28.43ZM-6.7 -22.65C-5.8 -22.65 -5.03 -22.5 -4.4 -22.19C-3.77 -21.89 -3.26 -21.49 -2.88 -20.99C-2.49 -20.5 -2.21 -19.93 -2.04 -19.3C-1.87 -18.68 -1.78 -18.03 -1.78 -17.36L-12.23 -17.36C-11.94 -19.07 -11.35 -20.38 -10.45 -21.29C-9.55 -22.2 -8.3 -22.65 -6.7 -22.65Z M27.65 -21.87L29.54 -24.81C29.02 -25.33 28.41 -25.82 27.73 -26.26C27.05 -26.7 26.29 -27.08 25.46 -27.4C24.63 -27.73 23.75 -27.98 22.8 -28.16C21.86 -28.34 20.88 -28.43 19.87 -28.43C18.02 -28.43 16.4 -28.19 15.01 -27.72C13.63 -27.24 12.47 -26.59 11.56 -25.78C10.64 -24.97 9.95 -24.03 9.49 -22.96C9.03 -21.89 8.8 -20.76 8.8 -19.57C8.8 -18.3 8.99 -17.21 9.37 -16.31C9.75 -15.41 10.24 -14.65 10.85 -14.03C11.47 -13.41 12.16 -12.89 12.95 -12.49C13.73 -12.08 14.53 -11.74 15.34 -11.45C16.15 -11.16 16.94 -10.9 17.73 -10.68C18.51 -10.45 19.21 -10.21 19.82 -9.95C20.43 -9.69 20.92 -9.38 21.3 -9.02C21.68 -8.66 21.87 -8.2 21.87 -7.64C21.87 -7.33 21.81 -7.04 21.68 -6.75C21.55 -6.46 21.36 -6.2 21.09 -5.97C20.82 -5.73 20.46 -5.55 20.01 -5.41C19.56 -5.28 19.01 -5.21 18.36 -5.21C17.44 -5.21 16.68 -5.32 16.08 -5.53C15.48 -5.75 14.95 -5.99 14.5 -6.24C14.05 -6.49 13.63 -6.72 13.24 -6.94C12.86 -7.15 12.42 -7.26 11.93 -7.26C11.41 -7.26 10.99 -7.16 10.66 -6.95C10.34 -6.75 10.06 -6.46 9.83 -6.1L7.88 -3.02C8.42 -2.54 9.07 -2.08 9.83 -1.66C10.58 -1.24 11.41 -0.87 12.3 -0.57C13.19 -0.26 14.11 -0.02 15.07 0.16C16.02 0.34 16.97 0.43 17.93 0.43C19.84 0.43 21.52 0.2 22.99 -0.27C24.46 -0.74 25.69 -1.39 26.69 -2.24C27.69 -3.09 28.44 -4.1 28.94 -5.26C29.45 -6.43 29.7 -7.71 29.7 -9.1C29.7 -10.23 29.52 -11.2 29.15 -12.01C28.78 -12.82 28.29 -13.51 27.67 -14.08C27.06 -14.65 26.37 -15.12 25.6 -15.51C24.82 -15.9 24.03 -16.24 23.22 -16.52C22.41 -16.81 21.62 -17.07 20.84 -17.31C20.07 -17.54 19.38 -17.79 18.76 -18.05C18.15 -18.31 17.66 -18.61 17.29 -18.95C16.92 -19.3 16.74 -19.73 16.74 -20.25C16.74 -20.97 17.02 -21.53 17.59 -21.94C18.16 -22.34 18.97 -22.54 20.03 -22.54C20.77 -22.54 21.43 -22.46 22.01 -22.29C22.58 -22.12 23.1 -21.93 23.56 -21.73C24.02 -21.54 24.44 -21.35 24.84 -21.18C25.24 -21.01 25.63 -20.92 26.03 -20.92C26.41 -20.92 26.72 -21 26.96 -21.14C27.2 -21.28 27.43 -21.53 27.65 -21.87Z M46.28 -28.43C44.14 -28.43 42.21 -28.06 40.51 -27.32C38.81 -26.59 37.36 -25.59 36.17 -24.33C34.97 -23.07 34.05 -21.6 33.41 -19.93C32.77 -18.25 32.45 -16.48 32.45 -14.61C32.45 -12.12 32.83 -9.95 33.57 -8.07C34.32 -6.2 35.34 -4.64 36.63 -3.37C37.91 -2.12 39.42 -1.17 41.13 -0.53C42.85 0.11 44.69 0.43 46.66 0.43C47.61 0.43 48.61 0.36 49.67 0.23C50.72 0.09 51.77 -0.15 52.83 -0.5C53.88 -0.85 54.9 -1.34 55.9 -1.96C56.9 -2.58 57.83 -3.38 58.7 -4.37L56.27 -7.37C55.93 -7.86 55.42 -8.1 54.76 -8.1C54.25 -8.1 53.77 -7.98 53.31 -7.75C52.85 -7.52 52.35 -7.25 51.8 -6.97C51.25 -6.68 50.63 -6.42 49.92 -6.18C49.22 -5.95 48.38 -5.83 47.41 -5.83C45.59 -5.83 44.11 -6.36 42.96 -7.41C41.81 -8.46 41.09 -10.16 40.82 -12.5L56.97 -12.5C57.35 -12.5 57.66 -12.55 57.9 -12.64C58.14 -12.73 58.34 -12.89 58.48 -13.12C58.63 -13.36 58.73 -13.67 58.78 -14.07C58.83 -14.46 58.86 -14.98 58.86 -15.61C58.86 -17.62 58.55 -19.43 57.93 -21.02C57.31 -22.61 56.44 -23.96 55.34 -25.06C54.23 -26.15 52.91 -26.99 51.37 -27.57C49.83 -28.14 48.13 -28.43 46.28 -28.43ZM46.44 -22.65C47.34 -22.65 48.1 -22.5 48.74 -22.19C49.36 -21.89 49.87 -21.49 50.26 -20.99C50.65 -20.5 50.93 -19.93 51.1 -19.3C51.27 -18.68 51.35 -18.03 51.35 -17.36L40.91 -17.36C41.19 -19.07 41.79 -20.38 42.69 -21.29C43.59 -22.2 44.84 -22.65 46.44 -22.65Z M83 0L86.83 0L86.83 -17.5C86.83 -19.1 86.58 -20.57 86.08 -21.92C85.57 -23.27 84.85 -24.44 83.9 -25.42C82.96 -26.4 81.81 -27.17 80.45 -27.72C79.09 -28.26 77.56 -28.54 75.87 -28.54C73.51 -28.54 71.3 -28.17 69.24 -27.45C67.18 -26.72 65.3 -25.6 63.61 -24.11L65.12 -21.49C65.36 -21.08 65.68 -20.73 66.08 -20.45C66.49 -20.17 66.98 -20.03 67.55 -20.03C68.2 -20.03 68.76 -20.14 69.23 -20.36C69.7 -20.57 70.18 -20.82 70.67 -21.09C71.17 -21.36 71.73 -21.6 72.36 -21.82C72.99 -22.03 73.8 -22.14 74.79 -22.14C76.03 -22.14 76.99 -21.78 77.67 -21.05C78.34 -20.32 78.68 -19.13 78.68 -17.5L78.68 -16.31C75.47 -16.24 72.82 -15.91 70.71 -15.34C68.61 -14.76 66.93 -14.04 65.69 -13.19C64.45 -12.33 63.58 -11.38 63.07 -10.34C62.57 -9.3 62.32 -8.28 62.32 -7.29C62.32 -6.03 62.51 -4.92 62.91 -3.96C63.31 -2.99 63.87 -2.19 64.6 -1.54C65.33 -0.89 66.21 -0.4 67.26 -0.07C68.3 0.27 69.46 0.43 70.74 0.43C71.69 0.43 72.56 0.36 73.35 0.2C74.13 0.05 74.87 -0.18 75.56 -0.5C76.25 -0.81 76.92 -1.2 77.57 -1.65C78.22 -2.1 78.89 -2.62 79.6 -3.21L80.19 -1.67C80.46 -0.99 80.8 -0.54 81.2 -0.32C81.61 -0.11 82.21 0 83 0ZM73.39 -5.1C72.38 -5.1 71.61 -5.3 71.09 -5.68C70.57 -6.07 70.31 -6.74 70.31 -7.69C70.31 -8.18 70.43 -8.63 70.67 -9.04C70.92 -9.46 71.35 -9.83 71.98 -10.15C72.61 -10.48 73.47 -10.75 74.55 -10.96C75.63 -11.18 77 -11.32 78.68 -11.39L78.68 -7.51C77.85 -6.66 77.03 -6.05 76.22 -5.67C75.41 -5.29 74.47 -5.1 73.39 -5.1Z M92.77 0L101.14 0L101.14 -17.17C102.4 -19.51 104.13 -20.68 106.33 -20.68C106.96 -20.68 107.48 -20.64 107.89 -20.56C108.31 -20.48 108.67 -20.44 108.97 -20.44C109.33 -20.44 109.62 -20.52 109.84 -20.67C110.05 -20.82 110.2 -21.09 110.27 -21.46L111.35 -27.62C110.57 -28.23 109.55 -28.54 108.27 -28.54C106.76 -28.54 105.36 -28.08 104.09 -27.16C102.81 -26.24 101.65 -24.99 100.63 -23.41L100.17 -26.03C100.1 -26.39 100.01 -26.69 99.91 -26.95C99.81 -27.2 99.67 -27.4 99.48 -27.55C99.29 -27.71 99.06 -27.82 98.78 -27.89C98.5 -27.96 98.15 -28 97.74 -28L92.77 -28Z M135.27 -21.36L137.48 -24.3C136.15 -25.65 134.66 -26.68 133 -27.38C131.35 -28.08 129.42 -28.43 127.22 -28.43C124.94 -28.43 122.93 -28.06 121.19 -27.32C119.45 -26.59 117.99 -25.57 116.82 -24.29C115.64 -23 114.75 -21.48 114.14 -19.72C113.54 -17.97 113.24 -16.08 113.24 -14.07C113.24 -11.76 113.58 -9.71 114.28 -7.91C114.97 -6.11 115.91 -4.59 117.09 -3.36C118.26 -2.13 119.63 -1.19 121.19 -0.54C122.75 0.11 124.38 0.43 126.09 0.43C127.04 0.43 128.02 0.36 129.03 0.23C130.04 0.09 131.04 -0.15 132.04 -0.5C133.04 -0.85 134.02 -1.34 134.97 -1.96C135.93 -2.58 136.84 -3.38 137.7 -4.37L135.27 -7.37C134.93 -7.86 134.42 -8.1 133.76 -8.1C133.25 -8.1 132.84 -7.97 132.5 -7.72C132.17 -7.47 131.81 -7.2 131.41 -6.9C131.01 -6.6 130.53 -6.33 129.96 -6.09C129.4 -5.85 128.63 -5.72 127.66 -5.72C125.84 -5.72 124.41 -6.44 123.38 -7.88C122.34 -9.32 121.82 -11.38 121.82 -14.07C121.82 -15.34 121.94 -16.49 122.18 -17.51C122.41 -18.53 122.77 -19.39 123.26 -20.09C123.74 -20.79 124.36 -21.33 125.1 -21.71C125.85 -22.09 126.74 -22.27 127.76 -22.27C128.59 -22.27 129.28 -22.18 129.84 -21.98C130.4 -21.78 130.89 -21.56 131.3 -21.32C131.71 -21.07 132.09 -20.85 132.42 -20.65C132.75 -20.46 133.13 -20.36 133.54 -20.36C133.97 -20.36 134.31 -20.45 134.54 -20.63C134.78 -20.81 135.02 -21.05 135.27 -21.36Z M141.32 0L149.69 0L149.69 -19.95C150.43 -20.62 151.2 -21.15 152.01 -21.55C152.82 -21.94 153.68 -22.14 154.6 -22.14C155.83 -22.14 156.75 -21.76 157.38 -20.99C158.01 -20.23 158.33 -19.16 158.33 -17.79L158.33 0L166.7 0L166.7 -17.79C166.7 -19.32 166.49 -20.74 166.08 -22.05C165.66 -23.35 165.05 -24.48 164.24 -25.42C163.43 -26.37 162.44 -27.1 161.26 -27.63C160.08 -28.17 158.72 -28.43 157.19 -28.43C155.56 -28.43 154.15 -28.17 152.97 -27.63C151.79 -27.1 150.7 -26.41 149.69 -25.54L149.69 -40.42L141.32 -40.42Z"></path></g><g id="SvgjsG29805" class="text" transform="translate(319.4364362506451, 121.1663733646705) scale(1)" light-content="false" fill="#ff7f3e"><path d="M-113.81 -19.41L-98.24 0L-93.47 0L-93.47 -30.25L-99.35 -30.25L-99.35 -10.41L-115.14 -30.29L-119.7 -30.29L-119.7 0L-113.81 0Z M-57.29 0L-51.4 0L-51.4 -30.29L-57.29 -30.29Z M-9.34 -19.41L6.23 0L11.01 0L11.01 -30.25L5.12 -30.25L5.12 -10.41L-10.66 -30.29L-15.23 -30.29L-15.23 0L-9.34 0Z M45.65 -6.19L44.32 -1.41C46.14 -0.16 48.33 0.47 50.89 0.47C53.4 0.47 55.39 0.1 56.86 -0.64C58.34 -1.38 59.47 -2.42 60.26 -3.75C61.04 -5.09 61.55 -6.7 61.79 -8.6C62.03 -10.49 62.15 -12.58 62.15 -14.89L62.15 -30.29L56.27 -30.29L56.27 -14.89C56.27 -13.18 56.21 -11.7 56.1 -10.43C55.98 -9.16 55.74 -8.11 55.37 -7.25C55 -6.4 54.46 -5.77 53.75 -5.35C53.04 -4.94 52.09 -4.74 50.89 -4.74C49.67 -4.74 48.59 -4.91 47.65 -5.25C46.71 -5.59 46.04 -5.9 45.65 -6.19Z M105.97 -30.29L94.4 0L100.46 0L103.24 -7.55L113.81 -7.55L116.63 0L122.69 0L111.17 -30.29ZM112.75 -11.69L104.22 -11.69L108.57 -23.59Z"></path></g><g id="SvgjsG29806" class="J9G0IQfBaw" transform="translate(5.824511626718291, 91.92766923184837) scale(1)" light-content="false" fill="#000000"><path d="				M 19.162183417678662, 20.309552351055814				m 0, -20.309552351055814
				a 19.662183417678662, 20.309552351055814, 0, 1, 0, 1, 0
				Z
			"></path></g><g id="SvgjsG29807" class="PIaSlB5GGa" transform="translate(8.348448910572287, 95.58157054151806) scale(1)" light-content="true" fill="#ffffff"><path d="					M 16.320321242677725, 16.496853526472385
					m 0, -16.496853526472385
					a 16.820321242677725, 16.496853526472385, 0, 1, 0, 1, 0
					Z
					m 1, 4
					a 12.820321242677725, 12.496853526472385, 0, 1, 1, -1, 0
					Z
				"></path></g><g id="SvgjsG29808" class="9AleTu-p-H" transform="translate(15.79545210890143, 102.22415701578302) scale(1)" light-content="true" fill="#ffffff"><path d="					M 9.078424246200717, 9.704031486160225
					m 0, -9.704031486160225
					a 9.578424246200717, 9.704031486160225, 0, 1, 0, 1, 0
					Z
					m 1, 3
					a 6.578424246200717, 6.7040314861602255, 0, 1, 1, -1, 0
					Z
				"></path></g><g id="SvgjsG29809" class="wQQCHck5az" transform="translate(21.421049659172226, 106.69022499060128) scale(1)" light-content="true" fill="#ffffff"><path d="					M 3.7145066683283154, 4.5976436381763435
					m 0, -4.5976436381763435
					a 4.214506668328315, 4.5976436381763435, 0, 1, 0, 1, 0
					Z
					m 1, 1
					a 3.2145066683283154, 3.5976436381763435, 0, 1, 1, -1, 0
					Z
				"></path></g></g></g></svg>